<svg version="1.1" id="Layer_1" xmlns="http://www.w3.org/2000/svg" xmlns:xlink="http://www.w3.org/1999/xlink" x="0px" y="0px"
	 width="100%" viewBox="0 0 1500 124" enable-background="new 0 0 1500 124" xml:space="preserve">
<path fill="#FEFEFE" opacity="1.000000" stroke="none" 
	d="
M1501.000000,42.000000 
	C1501.000000,69.659668 1501.000000,97.319344 1501.000000,124.950188 
	C1001.000000,124.950188 501.000000,124.950188 1.000000,124.950188 
	C1.000000,95.907753 1.000000,66.915131 1.270621,37.404751 
	C2.036696,36.696671 2.532151,36.506348 3.478015,36.395515 
	C7.280337,36.432308 10.632250,36.389610 14.332081,36.520638 
	C17.794449,36.558300 20.908899,36.422241 24.461948,36.363190 
	C26.961683,36.328667 29.022820,36.217140 31.441666,36.124371 
	C33.512016,34.746056 35.224655,33.348984 37.351501,31.849972 
	C39.184975,31.747486 40.604248,31.746937 42.209496,32.058987 
	C48.084949,36.149147 53.510471,33.580574 59.345695,31.714005 
	C60.731354,31.610937 61.735195,31.476324 63.088272,31.500217 
	C65.417633,30.924749 67.397758,30.190771 69.821564,29.445305 
	C78.506104,29.360359 86.746964,29.286903 95.211578,29.389915 
	C96.904976,28.323784 98.814766,27.343033 99.745003,25.779497 
	C101.283653,23.193317 102.190826,20.231434 103.750473,17.394846 
	C105.600586,16.471653 107.267563,15.793348 108.474586,14.635541 
	C109.859146,13.307451 110.835876,11.554187 112.300278,9.968994 
	C113.025345,9.269271 113.439911,8.586180 114.074928,7.793560 
	C114.592590,7.538095 114.861137,7.351021 115.407654,7.151283 
	C116.270615,6.609760 116.826935,6.039762 117.809311,5.459047 
	C121.369812,5.446264 124.504257,5.444200 127.818192,5.708086 
	C131.737518,6.494902 135.477341,7.015768 139.630890,7.622297 
	C142.277298,7.592165 144.509964,7.476370 147.026749,7.524981 
	C148.316177,6.917165 149.321503,6.144941 150.749817,5.370954 
	C153.447357,5.295588 155.721893,5.221987 158.288696,5.347184 
	C165.056091,5.392358 171.531219,5.238735 178.409912,5.198671 
	C180.205292,5.269835 181.597122,5.227437 183.281937,5.395293 
	C185.814636,5.195637 188.055359,4.444666 190.293823,4.451235 
	C194.203766,4.462710 198.112305,4.940126 202.459900,5.278456 
	C205.253906,5.290977 207.609436,5.247325 210.300018,5.419937 
	C213.743866,5.459962 216.871719,5.440866 219.956711,5.067685 
	C223.808273,4.601776 227.865524,2.714719 231.401413,3.468998 
	C237.168442,4.699227 242.585297,7.570879 248.297211,9.884381 
	C248.444504,10.018824 248.809052,10.180591 248.878799,10.516403 
	C251.777542,13.237838 252.996246,17.931381 258.447021,17.245075 
	C260.913971,17.299044 262.949127,17.286144 265.234680,17.442129 
	C267.066559,16.939775 268.648102,16.268536 270.260864,15.664863 
	C270.292114,15.732430 270.440308,15.746935 270.379364,16.084507 
	C271.616028,17.481117 272.913605,18.540157 274.376953,19.730869 
	C274.542664,19.862541 274.912323,20.068893 274.950073,20.427845 
	C276.477356,23.968925 278.236267,26.170872 282.196930,23.756462 
	C283.051270,23.235661 284.659821,23.952093 286.300964,24.268665 
	C288.330322,24.448782 289.979675,24.458858 291.803589,24.783905 
	C294.533020,25.415169 297.113831,26.121826 299.636566,25.954119 
	C303.211792,25.716442 306.744141,24.834242 310.529114,24.388977 
	C310.926361,24.647675 311.089264,24.744881 311.255188,25.163765 
	C311.881165,25.920597 312.504120,26.355755 313.286072,26.914606 
	C313.445068,27.038300 313.828461,27.162115 313.894531,27.491306 
	C315.069458,28.321608 316.178314,28.822718 317.501770,29.473831 
	C317.867828,29.710491 318.019318,29.797142 318.165039,30.215954 
	C319.149414,31.301577 320.139618,32.055038 321.319458,33.051842 
	C322.226562,33.663525 322.944031,34.031872 323.755219,34.697800 
	C325.240356,35.434460 326.631775,35.873531 328.447083,36.362572 
	C330.575104,36.368801 332.279175,36.325066 334.110352,36.500237 
	C334.833130,36.578156 335.428894,36.437160 336.282440,36.357861 
	C336.889648,36.470879 337.239014,36.522198 337.726990,36.865559 
	C339.541901,38.149284 341.218262,39.140976 343.049866,40.367157 
	C343.683228,40.881191 344.161346,41.160736 344.766541,41.724663 
	C347.718903,41.828613 350.544159,41.648186 353.649811,41.499287 
	C354.493805,41.514519 355.057373,41.498219 355.759949,41.766823 
	C357.604431,42.478615 359.309906,42.905506 361.323853,43.432301 
	C362.277863,43.584332 362.923309,43.636452 363.821381,43.924301 
	C366.790955,43.946163 369.507965,43.732288 372.453094,43.622726 
	C372.839478,43.781200 372.997681,43.835369 373.211578,44.238976 
	C376.397461,47.644993 379.328369,47.971699 382.251465,43.809418 
	C386.509949,40.211761 389.394897,34.859928 396.267273,36.351711 
	C398.368011,36.504234 400.195679,36.443504 402.387848,36.439075 
	C404.201172,36.639473 405.649963,36.783569 407.131409,37.293560 
	C410.272186,38.201717 413.369446,39.109776 416.491028,39.203121 
	C421.558685,39.354664 427.277527,36.987797 430.197113,43.654617 
	C430.209747,43.683472 430.733978,43.488274 431.391022,43.488483 
	C432.507721,43.451168 433.252655,43.323078 434.187012,43.404182 
	C435.717590,42.913399 437.058838,42.213421 438.668030,41.503906 
	C439.285187,41.421913 439.634338,41.349453 440.292480,41.451031 
	C442.546478,41.283703 444.479950,40.767605 446.439026,40.637997 
	C450.306213,40.382141 454.246399,39.869354 458.046387,40.343735 
	C461.776001,40.809319 465.369110,42.368362 469.278931,43.519394 
	C469.890686,43.581718 470.245667,43.572182 470.769897,43.821350 
	C472.627625,44.735706 474.316010,45.391354 476.282349,46.131744 
	C476.946472,46.245773 477.332672,46.275055 477.806274,46.597908 
	C478.544556,47.316879 479.195374,47.742283 480.055908,48.420059 
	C482.237915,50.378330 484.210205,52.084232 486.194946,54.152069 
	C491.820221,59.271893 499.296295,58.853096 504.506256,53.410702 
	C505.206879,53.289131 505.614532,53.262207 506.283386,53.492771 
	C511.064819,53.068390 515.630493,52.589577 520.080322,51.593102 
	C521.610840,51.250362 522.851990,49.615353 524.482300,48.508270 
	C525.088562,48.479237 525.437866,48.512627 525.931641,48.828793 
	C528.000305,50.113411 529.924377,51.115261 531.890869,52.094093 
	C531.933289,52.071083 531.889404,52.156986 531.847473,52.445297 
	C532.529419,52.942303 533.253235,53.150997 534.358643,53.342678 
	C535.752136,53.406895 536.764038,53.488121 537.901733,53.872704 
	C540.516724,55.705742 543.224121,56.973816 545.444458,58.825741 
	C548.868408,61.681564 551.273010,61.250111 553.205261,57.271130 
	C553.208435,57.210640 553.328247,57.192574 553.678223,57.136421 
	C554.840149,54.575985 555.652100,52.071693 556.512695,49.367912 
	C556.561401,49.168415 556.815002,48.845413 557.157166,48.850845 
	C557.915710,48.164108 558.332092,47.471939 558.828796,46.843163 
	C558.909119,46.906555 558.783630,46.744896 559.205933,46.816551 
	C561.534058,46.552967 563.463867,46.315224 565.338440,45.853405 
	C567.011536,45.441212 568.639893,44.263199 570.260010,44.314171 
	C581.634460,44.672024 593.118042,46.595528 604.364319,41.281273 
	C605.767700,41.328011 606.787170,41.385658 607.895508,41.769363 
	C611.319458,43.452003 614.654602,44.808582 618.367676,46.139805 
	C619.502258,46.135796 620.258972,46.157143 621.240723,46.435837 
	C622.973816,46.525372 624.481873,46.357555 626.367554,46.157730 
	C627.502380,46.145550 628.259583,46.165382 629.268311,46.446442 
	C632.857544,46.676472 636.364685,47.055134 638.241455,42.948761 
	C638.630432,42.521908 638.885132,42.307400 639.478394,42.103855 
	C640.250854,41.135086 640.684753,40.155357 641.359802,38.953110 
	C643.086548,37.977695 644.572144,37.224796 646.323669,36.673763 
	C648.684448,38.279633 650.779297,39.683640 653.185852,41.189762 
	C653.925903,41.377979 654.354187,41.464085 654.902954,41.863380 
	C659.276306,45.694073 663.140198,45.474796 667.604492,41.413223 
	C669.345520,41.341789 670.689697,41.342251 672.355957,41.595474 
	C674.938232,41.689583 677.198425,41.530926 679.663086,41.437344 
	C679.867554,41.502415 680.183716,41.792561 680.177429,42.139488 
	C685.076782,45.683247 689.982422,48.880081 695.133972,52.305473 
	C696.175110,52.902191 696.970398,53.270351 697.893433,53.930977 
	C700.621826,56.028458 703.089294,56.491116 705.534302,53.442818 
	C706.500488,53.411430 707.147766,53.447525 707.916443,53.821945 
	C709.820496,54.630573 711.603149,55.100872 713.654480,55.542915 
	C714.275879,55.571751 714.628723,55.628838 715.143799,56.011902 
	C717.293091,57.081135 719.827087,58.952454 721.143921,58.313850 
	C723.340332,57.248703 724.757812,54.577202 726.562439,52.392990 
	C726.621643,52.203991 726.888184,51.910957 727.263184,51.941666 
	C729.468567,50.712826 731.299011,49.453285 733.125366,48.154091 
	C733.121277,48.114445 733.198425,48.134434 733.548218,48.141045 
	C735.577698,48.182175 737.301941,47.985107 738.927979,48.298065 
	C742.635376,49.011608 746.265198,49.809052 749.541992,46.364891 
	C750.597900,46.248165 751.305908,46.201855 752.210938,46.399574 
	C753.254395,46.075706 754.100952,45.507809 754.922302,44.936363 
	C754.897095,44.932819 754.895203,44.881889 755.316162,44.945091 
	C759.103943,44.772732 762.482910,44.253319 765.833435,44.397057 
	C768.241638,44.500366 770.611755,45.488987 773.379639,46.116615 
	C774.775879,46.204754 775.791321,46.258965 776.922668,46.621304 
	C778.759338,47.319256 780.499023,48.108124 782.197510,48.027519 
	C788.444214,47.731052 794.710510,47.392651 800.900940,46.560730 
	C803.779541,46.173882 806.501038,44.618000 809.503357,43.471134 
	C809.712952,43.350224 810.130310,43.105316 810.443481,43.148399 
	C811.592285,42.629055 812.427917,42.066620 813.640015,41.456413 
	C815.747192,41.539356 817.477905,41.670074 819.215576,42.142570 
	C821.546082,43.790775 823.839111,46.112991 826.199707,46.183884 
	C830.584839,46.315582 835.016479,45.176510 839.409607,44.450787 
	C840.032410,44.347919 840.547791,43.595600 841.266235,42.898216 
	C841.831665,42.259178 842.243774,41.865799 843.047852,41.621483 
	C850.780701,41.029633 858.147156,40.470062 865.447998,39.443562 
	C867.812683,39.111080 870.005310,37.554539 872.620117,36.533073 
	C873.649109,36.445374 874.334595,36.382507 875.315796,36.550247 
	C878.069641,36.615223 880.527832,36.449596 883.379395,36.338188 
	C885.092285,36.440327 886.411865,36.488251 887.878357,36.822983 
	C891.015198,38.472813 894.005249,39.835838 897.441772,41.247200 
	C900.850220,41.329418 903.812195,41.363297 906.916504,41.700981 
	C909.976501,43.385464 912.894165,44.766140 915.857971,46.120632 
	C915.904114,46.094444 915.856079,46.189041 915.824829,46.495712 
	C916.858459,47.340172 917.923401,47.877964 919.416748,48.464355 
	C921.568359,48.457275 923.291443,48.401596 925.245117,48.573845 
	C926.695251,50.080021 927.844482,51.436348 929.152527,52.616604 
	C930.765503,54.071983 932.510742,55.380795 934.173584,56.803207 
	C934.148254,56.853458 934.248718,56.802776 934.161377,57.065887 
	C934.715698,57.585926 935.357361,57.842850 936.340820,58.156631 
	C937.369080,58.295647 938.055481,58.377804 938.840088,58.801235 
	C943.087524,61.728779 948.621765,60.690018 951.893616,56.509201 
	C952.600281,55.982906 953.121155,55.693115 953.933960,55.576382 
	C955.231201,54.975849 956.236450,54.202263 957.493530,53.392052 
	C958.082642,53.382397 958.419861,53.409367 958.863525,53.752666 
	C960.335754,55.213612 961.711243,56.346848 963.065308,57.505142 
	C966.155823,60.148869 974.243225,60.629543 978.573364,58.336422 
	C979.613586,58.257183 980.310059,58.235775 981.208618,58.419575 
	C982.215271,57.692150 983.019775,56.759518 984.078979,55.632950 
	C984.680603,54.698418 985.027466,53.957817 985.673889,53.081482 
	C988.130920,47.409283 991.700256,44.360142 998.356323,46.133026 
	C999.426758,46.170094 1000.140076,46.193771 1000.963501,46.549980 
	C1005.569885,50.057873 1008.663147,49.272469 1012.368286,43.927200 
	C1013.330322,43.672447 1013.996033,43.580444 1015.095581,43.722122 
	C1017.796692,43.821674 1020.063965,43.687553 1022.664001,43.581779 
	C1023.663025,43.656303 1024.329224,43.702477 1025.230957,44.028465 
	C1026.632568,44.877811 1027.788940,45.467926 1028.966064,46.013100 
	C1033.120239,47.936993 1039.000488,47.012100 1041.327515,43.961147 
	C1042.073975,43.562958 1042.586426,43.323826 1043.392090,43.173050 
	C1044.223999,42.710117 1044.762817,42.158825 1045.725342,41.492573 
	C1049.687744,41.393135 1053.226562,41.408653 1056.911133,41.737259 
	C1065.887573,46.276478 1074.611328,45.750614 1083.624878,41.417114 
	C1085.003784,41.330589 1086.008301,41.287403 1087.315918,41.477516 
	C1090.411499,41.569271 1093.203857,41.427727 1096.391846,41.302628 
	C1098.102661,41.385410 1099.417847,41.451752 1100.888428,41.811508 
	C1106.083862,44.104298 1108.054443,40.153431 1110.548462,37.206997 
	C1115.406860,31.467224 1118.411011,31.475227 1122.940430,37.178864 
	C1123.502319,37.886520 1124.277344,38.424953 1124.976807,39.021111 
	C1125.000000,39.000458 1124.959106,39.046909 1124.963623,39.371086 
	C1125.635620,40.138893 1126.303223,40.582527 1127.162109,41.136360 
	C1127.353638,41.246555 1127.743408,41.454845 1127.805664,41.741096 
	C1129.615356,43.983311 1131.076172,43.778255 1132.453613,41.346390 
	C1132.652222,41.247021 1133.045166,41.039791 1133.366333,41.055634 
	C1134.116089,40.370823 1134.544678,39.670174 1135.227783,38.735100 
	C1137.220215,37.052017 1138.762085,34.810890 1140.737061,34.323307 
	C1144.585571,33.373203 1149.312744,35.913498 1152.243042,31.138880 
	C1152.442017,30.814665 1154.092285,31.379728 1155.067261,31.533422 
	C1159.499512,32.232113 1163.400635,31.533518 1167.231567,28.722084 
	C1170.002686,26.688353 1173.594116,24.956568 1176.933716,24.723808 
	C1180.946167,24.444143 1185.280884,26.442339 1186.813110,20.590370 
	C1186.899048,20.262295 1187.601685,19.952232 1188.054321,19.885313 
	C1193.903931,19.020428 1199.771851,17.445358 1205.612305,17.534750 
	C1216.330811,17.698797 1227.035767,18.829802 1237.741089,19.627609 
	C1238.684570,19.697920 1239.715210,20.105686 1240.492798,20.656847 
	C1247.328857,25.502239 1254.042725,24.780964 1260.813721,20.492332 
	C1261.700439,19.930710 1263.231567,19.451138 1264.024780,19.836966 
	C1267.717773,21.633457 1271.931519,23.078316 1274.712402,25.884327 
	C1280.913330,32.141216 1287.717896,36.213036 1296.691772,36.887512 
	C1306.941040,37.657856 1315.827271,44.685745 1326.541748,43.783298 
	C1327.280273,43.721092 1328.053101,44.498287 1328.849243,44.613682 
	C1331.916870,45.058258 1335.054932,45.938412 1338.065430,45.638840 
	C1342.493652,45.198181 1347.000732,44.346264 1351.175903,42.841400 
	C1358.029419,40.371105 1364.370605,41.801872 1369.469849,45.941170 
	C1379.121826,53.776329 1390.529419,54.545673 1401.538696,53.395859 
	C1413.336426,52.163704 1423.541870,54.704918 1433.930176,59.463055 
	C1440.480713,62.463333 1447.307495,65.107857 1454.101440,58.553680 
	C1459.291138,53.547062 1466.600830,51.750183 1473.439819,53.027317 
	C1478.968506,54.059776 1481.782349,51.978489 1484.814209,48.462036 
	C1486.324951,46.709854 1488.116577,45.199772 1490.170898,43.635201 
	C1494.040649,43.126827 1497.520264,42.563412 1501.000000,42.000000 
M186.106232,88.055717 
	C183.880142,87.701080 181.654037,87.346451 179.427948,86.991814 
	C179.149536,87.677025 178.871140,88.362236 178.592728,89.047440 
	C180.575745,90.344170 182.435669,91.957878 184.596405,92.796959 
	C185.598770,93.186218 187.186478,92.068214 188.508820,91.633499 
	C187.928741,90.570740 187.348663,89.507980 186.106232,88.055717 
M176.734863,69.007774 
	C179.646301,69.007774 182.557755,69.007774 185.469193,69.007774 
	C185.471390,68.234230 185.473587,67.460693 185.475784,66.687149 
	C180.855927,66.428154 176.236084,66.169151 171.616241,65.910156 
	C171.515976,66.555054 171.415695,67.199959 171.315430,67.844856 
	C172.826553,68.232246 174.337662,68.619637 176.734863,69.007774 
M1181.195435,64.805740 
	C1181.300781,63.908230 1181.743286,62.377769 1181.452881,62.223034 
	C1180.212891,61.562553 1178.777710,61.164021 1177.371582,60.957214 
	C1176.442261,60.820568 1175.441284,61.172245 1174.472412,61.305279 
	C1174.797485,62.425499 1174.846802,64.269844 1175.503174,64.519661 
	C1177.007935,65.092392 1178.808838,64.887207 1181.195435,64.805740 
M1044.383789,69.012459 
	C1043.042603,69.623840 1041.701416,70.235214 1040.360229,70.846634 
	C1041.289917,71.839844 1042.190674,73.606003 1043.156494,73.642311 
	C1044.552124,73.694771 1045.994995,72.493622 1047.417725,71.827347 
	C1046.659912,70.896393 1045.902100,69.965439 1044.383789,69.012459 
M566.520752,90.820480 
	C568.461548,93.453125 570.472168,93.578163 573.185303,91.307030 
	C571.591125,89.896233 570.591309,88.808006 569.401367,87.999695 
	C566.727417,86.183372 565.824646,87.275475 566.520752,90.820480 
M821.608215,74.726967 
	C817.464905,73.225914 816.709290,75.023651 817.900208,80.288567 
	C819.722168,78.050018 820.784363,76.744926 821.608215,74.726967 
z"/>
<path fill="#F7F7F7" opacity="1.000000" stroke="none" 
	d="
M186.437408,88.250473 
	C187.348663,89.507980 187.928741,90.570740 188.508820,91.633499 
	C187.186478,92.068214 185.598770,93.186218 184.596405,92.796959 
	C182.435669,91.957878 180.575745,90.344170 178.592728,89.047440 
	C178.871140,88.362236 179.149536,87.677025 179.427948,86.991814 
	C181.654037,87.346451 183.880142,87.701080 186.437408,88.250473 
z"/>
<path fill="#F2F2F2" opacity="1.000000" stroke="none" 
	d="
M176.291824,69.007401 
	C174.337662,68.619637 172.826553,68.232246 171.315430,67.844856 
	C171.415695,67.199959 171.515976,66.555054 171.616241,65.910156 
	C176.236084,66.169151 180.855927,66.428154 185.475784,66.687149 
	C185.473587,67.460693 185.471390,68.234230 185.469193,69.007774 
	C182.557755,69.007774 179.646301,69.007774 176.291824,69.007401 
z"/>
<path fill="#F6F6F6" opacity="1.000000" stroke="none" 
	d="
M1180.842529,64.901787 
	C1178.808838,64.887207 1177.007935,65.092392 1175.503174,64.519661 
	C1174.846802,64.269844 1174.797485,62.425499 1174.472412,61.305279 
	C1175.441284,61.172245 1176.442261,60.820568 1177.371582,60.957214 
	C1178.777710,61.164021 1180.212891,61.562553 1181.452881,62.223034 
	C1181.743286,62.377769 1181.300781,63.908230 1180.842529,64.901787 
z"/>
<path fill="#E7E7E7" opacity="1.000000" stroke="none" 
	d="
M1044.764160,69.023468 
	C1045.902100,69.965439 1046.659912,70.896393 1047.417725,71.827332 
	C1045.994995,72.493622 1044.552124,73.694771 1043.156494,73.642311 
	C1042.190674,73.606003 1041.289917,71.839844 1040.360229,70.846611 
	C1041.701416,70.235214 1043.042603,69.623840 1044.764160,69.023468 
z"/>
<path fill="#F4F4F4" opacity="1.000000" stroke="none" 
	d="
M566.358154,90.482742 
	C565.824646,87.275475 566.727417,86.183372 569.401367,87.999695 
	C570.591309,88.808006 571.591125,89.896233 573.185303,91.307030 
	C570.472168,93.578163 568.461548,93.453125 566.358154,90.482742 
z"/>
<path fill="#F2F2F2" opacity="1.000000" stroke="none" 
	d="
M821.727417,75.083405 
	C820.784363,76.744926 819.722168,78.050018 817.900208,80.288567 
	C816.709290,75.023651 817.464905,73.225914 821.727417,75.083405 
z"/>
</svg>