<svg version="1.0" xmlns="http://www.w3.org/2000/svg"
 width="100px" height="100px" viewBox="0 0 128.000000 128.000000"
 preserveAspectRatio="xMidYMid meet">
<g transform="translate(0.000000,128.000000) scale(0.100000,-0.100000)"
fill="#ff98a2" stroke="none">
<path d="M133 1258 c-26 -13 -31 -38 -7 -38 18 0 44 23 44 39 0 13 -8 13 -37
-1z"/>
<path d="M605 1212 c-60 -12 -95 -24 -90 -32 3 -5 19 -5 38 1 17 5 44 9 59 9
16 0 28 4 28 9 0 14 -12 18 -35 13z"/>
<path d="M720 1173 c0 -10 64 -92 73 -93 19 0 4 39 -26 68 -32 31 -47 39 -47
25z"/>
<path d="M48 1123 c-16 -19 -38 -58 -38 -67 0 -24 45 27 68 77 7 14 -15 7 -30
-10z"/>
<path d="M375 1089 c-25 -23 -43 -44 -40 -47 4 -5 115 76 115 84 0 16 -38 -3
-75 -37z"/>
<path d="M794 1003 c-3 -16 -10 -44 -15 -63 -10 -41 6 -66 19 -29 15 39 23
119 12 119 -5 0 -12 -12 -16 -27z"/>
<path d="M0 973 c0 -35 14 -73 23 -63 7 10 -5 100 -14 100 -5 0 -9 -17 -9 -37z"/>
<path d="M240 940 c-25 -21 -40 -39 -34 -40 11 0 104 67 104 75 0 15 -31 0
-70 -35z"/>
<path d="M40 871 c0 -14 66 -34 90 -26 35 11 22 24 -24 23 -24 0 -49 3 -55 6
-6 4 -11 3 -11 -3z"/>
<path d="M702 783 c-36 -53 -44 -73 -28 -73 11 0 66 80 66 96 0 13 -22 0 -38
-23z"/>
<path d="M590 628 c-37 -48 -49 -71 -50 -91 0 -31 22 -14 39 30 9 22 22 47 29
56 8 9 12 21 10 27 -2 6 -15 -4 -28 -22z"/>
<path d="M472 423 c-28 -40 -52 -90 -52 -108 0 -21 19 -19 26 3 4 9 17 41 31
70 28 60 26 78 -5 35z"/>
<path d="M1171 387 c-8 -10 -2 -32 24 -85 l34 -72 -34 0 c-39 0 -65 -8 -65
-21 0 -12 137 -12 144 0 6 10 -68 176 -82 185 -6 3 -15 0 -21 -7z"/>
<path d="M1050 346 c0 -5 83 -46 93 -46 18 0 4 21 -23 35 -27 14 -70 21 -70
11z"/>
<path d="M951 274 c-40 -46 -49 -64 -32 -64 15 0 92 90 86 100 -9 15 -10 14
-54 -36z"/>
<path d="M420 191 c0 -33 22 -81 41 -92 35 -18 40 2 9 31 -18 17 -30 38 -30
54 0 14 -4 26 -10 26 -5 0 -10 -8 -10 -19z"/>
<path d="M878 170 c-14 -10 -37 -22 -51 -25 -31 -8 -36 -25 -8 -25 32 0 76 20
89 40 17 27 -1 33 -30 10z"/>
<path d="M560 61 c0 -5 21 -19 46 -30 49 -24 114 -25 122 -3 3 9 -12 12 -53
12 -31 0 -69 7 -85 15 -17 9 -30 11 -30 6z"/>
</g>
</svg>
